<svg xmlns="http://www.w3.org/2000/svg" viewBox="0 0 512 512" width="512" height="512">
  <defs>
    <linearGradient id="bg" x1="0" y1="0" x2="0" y2="1">
      <stop offset="0" stop-color="#7f76f1"/><stop offset="1" stop-color="#323766"/>
    </linearGradient>
    <linearGradient id="sheen" x1="0" y1="0" x2="0" y2="1">
      <stop offset="0" stop-color="#ffffff" stop-opacity=".26"/>
      <stop offset=".5" stop-color="#ffffff" stop-opacity=".07"/>
      <stop offset="1" stop-color="#ffffff" stop-opacity="0"/>
    </linearGradient>
    <filter id="gsh" x="-20%" y="-20%" width="140%" height="140%">
      <feDropShadow dx="0" dy="10" stdDeviation="14" flood-color="#000" flood-opacity="0.35"/>
    </filter>
    <filter id="halo" x="-30%" y="-30%" width="160%" height="160%">
      <feGaussianBlur stdDeviation="8"/>
    </filter>
  </defs>
  <rect x="16" y="16" width="480" height="480" rx="108" fill="none" stroke="#f3a0ff" stroke-width="10" filter="url(#halo)">
    <animate attributeName="stroke-width" values="10;18;10" dur="2s" repeatCount="indefinite"/>
    <animate attributeName="stroke-opacity" values="1;.55;1" dur="2s" repeatCount="indefinite"/>
  </rect>
  <rect x="16" y="16" width="480" height="480" rx="108" fill="url(#bg)"/>
  <rect x="16" y="16" width="480" height="480" rx="108" fill="url(#sheen)"/>
  <rect x="22" y="22" width="468" height="468" rx="102" fill="none" stroke="#f3a0ff" stroke-opacity=".65" stroke-width="4"/>
  <g filter="url(#gsh)" fill="#FFFFFF" stroke="#FFFFFF">
    <rect x="126" y="140" width="260" height="164" rx="16" fill="none" stroke-width="20"/>
    <line x1="256" y1="150" x2="256" y2="294" stroke-width="12"/>
    <line x1="136" y1="222" x2="376" y2="222" stroke-width="12"/>
    <line x1="146" y1="0" x2="366" y2="0" stroke-width="6" opacity=".55">
      <animateTransform attributeName="transform" type="translate" from="0 156" to="0 290" dur="1.6s" repeatCount="indefinite"/></line>
    <circle cx="166" cy="352" r="16" stroke="none" opacity=".25"><animate attributeName="opacity" values=".25;1;.25" dur="1.6s" begin="0s" repeatCount="indefinite"/></circle>
    <circle cx="226" cy="352" r="16" stroke="none" opacity=".25"><animate attributeName="opacity" values=".25;1;.25" dur="1.6s" begin=".4s" repeatCount="indefinite"/></circle>
    <circle cx="286" cy="352" r="16" stroke="none" opacity=".25"><animate attributeName="opacity" values=".25;1;.25" dur="1.6s" begin=".8s" repeatCount="indefinite"/></circle>
    <circle cx="346" cy="352" r="16" stroke="none" opacity=".25"><animate attributeName="opacity" values=".25;1;.25" dur="1.6s" begin="1.2s" repeatCount="indefinite"/></circle></g>
</svg>
