<svg xmlns="http://www.w3.org/2000/svg" viewBox="0 0 512 512" width="512" height="512">
  <defs>
    <linearGradient id="bg" x1="0" y1="0" x2="0" y2="1">
      <stop offset="0" stop-color="#4ac9ed"/><stop offset="1" stop-color="#206165"/>
    </linearGradient>
    <linearGradient id="sheen" x1="0" y1="0" x2="0" y2="1">
      <stop offset="0" stop-color="#ffffff" stop-opacity=".26"/>
      <stop offset=".5" stop-color="#ffffff" stop-opacity=".07"/>
      <stop offset="1" stop-color="#ffffff" stop-opacity="0"/>
    </linearGradient>
    <filter id="gsh" x="-20%" y="-20%" width="140%" height="140%">
      <feDropShadow dx="0" dy="10" stdDeviation="14" flood-color="#000" flood-opacity="0.35"/>
    </filter>
    <filter id="halo" x="-30%" y="-30%" width="160%" height="160%">
      <feGaussianBlur stdDeviation="8"/>
    </filter>
  </defs>
  <rect x="16" y="16" width="480" height="480" rx="108" fill="none" stroke="#65b3ff" stroke-width="10" filter="url(#halo)">
    <animate attributeName="stroke-width" values="10;18;10" dur="2s" repeatCount="indefinite"/>
    <animate attributeName="stroke-opacity" values="1;.55;1" dur="2s" repeatCount="indefinite"/>
  </rect>
  <rect x="16" y="16" width="480" height="480" rx="108" fill="url(#bg)"/>
  <rect x="16" y="16" width="480" height="480" rx="108" fill="url(#sheen)"/>
  <rect x="22" y="22" width="468" height="468" rx="102" fill="none" stroke="#65b3ff" stroke-opacity=".65" stroke-width="4"/>
  <g filter="url(#gsh)" fill="#FFFFFF" stroke="#FFFFFF">
    <path d="M 244 128 h 24 v 96 l -12 14 -12 -14 z" stroke="none">
      <animateTransform attributeName="transform" type="translate" values="-80 0;80 0;-80 0" dur="2.8s" repeatCount="indefinite"/></path>
    <rect x="128" y="256" width="256" height="44" rx="10" fill="none" stroke-width="12"/>
    <g>
      <animateTransform attributeName="transform" type="translate" values="0 0;16 0;0 0" dur="2.8s" repeatCount="indefinite"/>
      <rect x="140" y="266" width="88" height="24" rx="6" stroke="none"/>
      <rect x="240" y="266" width="56" height="24" rx="6" stroke="none" opacity=".7"/>
    </g>
    <rect x="128" y="322" width="256" height="44" rx="10" fill="none" stroke-width="12"/>
    <g>
      <animateTransform attributeName="transform" type="translate" values="0 0;-16 0;0 0" dur="2.8s" repeatCount="indefinite"/>
      <rect x="168" y="332" width="120" height="24" rx="6" stroke="none" opacity=".85"/>
    </g></g>
</svg>
