<svg xmlns="http://www.w3.org/2000/svg" viewBox="0 0 512 512" width="512" height="512">
  <defs>
    <linearGradient id="bg" x1="0" y1="0" x2="0" y2="1">
      <stop offset="0" stop-color="#ff3c50"/><stop offset="1" stop-color="#801a33"/>
    </linearGradient>
    <linearGradient id="sheen" x1="0" y1="0" x2="0" y2="1">
      <stop offset="0" stop-color="#ffffff" stop-opacity=".26"/>
      <stop offset=".5" stop-color="#ffffff" stop-opacity=".07"/>
      <stop offset="1" stop-color="#ffffff" stop-opacity="0"/>
    </linearGradient>
    <filter id="gsh" x="-20%" y="-20%" width="140%" height="140%">
      <feDropShadow dx="0" dy="10" stdDeviation="14" flood-color="#000" flood-opacity="0.35"/>
    </filter>
    <filter id="halo" x="-30%" y="-30%" width="160%" height="160%">
      <feGaussianBlur stdDeviation="8"/>
    </filter>
  </defs>
  <rect x="16" y="16" width="480" height="480" rx="108" fill="none" stroke="#ffbe52" stroke-width="10" filter="url(#halo)">
    <animate attributeName="stroke-width" values="10;18;10" dur="2s" repeatCount="indefinite"/>
    <animate attributeName="stroke-opacity" values="1;.55;1" dur="2s" repeatCount="indefinite"/>
  </rect>
  <rect x="16" y="16" width="480" height="480" rx="108" fill="url(#bg)"/>
  <rect x="16" y="16" width="480" height="480" rx="108" fill="url(#sheen)"/>
  <rect x="22" y="22" width="468" height="468" rx="102" fill="none" stroke="#ffbe52" stroke-opacity=".65" stroke-width="4"/>
  <g filter="url(#gsh)" fill="#FFFFFF" stroke="#FFFFFF">
    <circle cx="186" cy="256" r="30" stroke="none">
      <animate attributeName="r" values="30;35;30" dur="1.5s" repeatCount="indefinite"/></circle>
    <path d="M 238 196 a 86 86 0 0 1 0 120" fill="none" stroke-width="22" stroke-linecap="round" opacity=".2">
      <animate attributeName="opacity" values=".2;1;.2" keyTimes="0;.25;1" dur="1.5s" begin="0s" repeatCount="indefinite"/></path>
    <path d="M 286 158 a 140 140 0 0 1 0 196" fill="none" stroke-width="22" stroke-linecap="round" opacity=".2">
      <animate attributeName="opacity" values=".2;1;.2" keyTimes="0;.25;1" dur="1.5s" begin=".25s" repeatCount="indefinite"/></path>
    <path d="M 330 120 a 194 194 0 0 1 0 272" fill="none" stroke-width="22" stroke-linecap="round" opacity=".2">
      <animate attributeName="opacity" values=".2;1;.2" keyTimes="0;.25;1" dur="1.5s" begin=".5s" repeatCount="indefinite"/></path></g>
</svg>
