<svg xmlns="http://www.w3.org/2000/svg" viewBox="0 0 512 512" width="512" height="512">
  <defs>
    <linearGradient id="bg" x1="0" y1="0" x2="0" y2="1">
      <stop offset="0" stop-color="#eaad2c"/><stop offset="1" stop-color="#633c13"/>
    </linearGradient>
    <linearGradient id="sheen" x1="0" y1="0" x2="0" y2="1">
      <stop offset="0" stop-color="#ffffff" stop-opacity=".26"/>
      <stop offset=".5" stop-color="#ffffff" stop-opacity=".07"/>
      <stop offset="1" stop-color="#ffffff" stop-opacity="0"/>
    </linearGradient>
    <filter id="gsh" x="-20%" y="-20%" width="140%" height="140%">
      <feDropShadow dx="0" dy="10" stdDeviation="14" flood-color="#000" flood-opacity="0.35"/>
    </filter>
    <filter id="halo" x="-30%" y="-30%" width="160%" height="160%">
      <feGaussianBlur stdDeviation="8"/>
    </filter>
  </defs>
  <rect x="16" y="16" width="480" height="480" rx="108" fill="none" stroke="#ffff3b" stroke-width="10" filter="url(#halo)">
    <animate attributeName="stroke-width" values="10;18;10" dur="2s" repeatCount="indefinite"/>
    <animate attributeName="stroke-opacity" values="1;.55;1" dur="2s" repeatCount="indefinite"/>
  </rect>
  <rect x="16" y="16" width="480" height="480" rx="108" fill="url(#bg)"/>
  <rect x="16" y="16" width="480" height="480" rx="108" fill="url(#sheen)"/>
  <rect x="22" y="22" width="468" height="468" rx="102" fill="none" stroke="#ffff3b" stroke-opacity=".65" stroke-width="4"/>
  <g filter="url(#gsh)" fill="#FFFFFF" stroke="#FFFFFF">
    <rect x="126" y="142" width="260" height="170" rx="16" fill="none" stroke-width="18"/>
    <line x1="256" y1="152" x2="256" y2="302" stroke-width="4" opacity=".4"/>
    <line x1="136" y1="227" x2="376" y2="227" stroke-width="4" opacity=".4"/>
    <path d="M 146 227 q 27 -66 55 0 t 55 0 t 55 0 t 55 0" fill="none" stroke-width="14" stroke-linecap="round">
      <animate attributeName="d" values="M 146 227 q 27 -66 55 0 t 55 0 t 55 0 t 55 0;M 146 227 q 27 66 55 0 t 55 0 t 55 0 t 55 0;M 146 227 q 27 -66 55 0 t 55 0 t 55 0 t 55 0" dur="1s" repeatCount="indefinite"/></path>
    <circle cx="196" cy="356" r="16" stroke="none"><animate attributeName="opacity" values="1;.3;1" dur="1.2s" begin="0s" repeatCount="indefinite"/></circle>
    <circle cx="256" cy="356" r="16" stroke="none"><animate attributeName="opacity" values="1;.3;1" dur="1.2s" begin=".4s" repeatCount="indefinite"/></circle>
    <circle cx="316" cy="356" r="16" stroke="none"><animate attributeName="opacity" values="1;.3;1" dur="1.2s" begin=".8s" repeatCount="indefinite"/></circle></g>
</svg>
