<svg xmlns="http://www.w3.org/2000/svg" viewBox="0 0 720 240" width="720" height="240" role="img" aria-label="Twist.Like.audio">
  <defs>
    <radialGradient id="bgg2" cx="30%" cy="40%" r="90%">
      <stop offset="0%" stop-color="#10203c"/>
      <stop offset="85%" stop-color="#050a15"/>
    </radialGradient>
    <filter id="glow2" x="-40%" y="-40%" width="180%" height="180%">
      <feGaussianBlur stdDeviation="2" result="b"/>
      <feMerge><feMergeNode in="b"/><feMergeNode in="SourceGraphic"/></feMerge>
    </filter>
  </defs>
  <rect x="0" y="0" width="720" height="240" rx="28" fill="url(#bgg2)"/>
  <!-- top LCARS rail -->
  <path d="M28 26 L600 26 A12 12 0 0 1 600 50 L28 50 A12 12 0 0 1 28 26 Z" fill="#FF9C00"/>
  <path d="M616 26 L692 26 A12 12 0 0 1 692 50 L616 50 A12 12 0 0 1 616 26 Z" fill="#FF9C63"/>
  <g filter="url(#glow2)">
    <line x1="130.00" y1="43.20" x2="130.00" y2="43.20" stroke="#00FFFF" stroke-width="2.4" stroke-linecap="round" opacity="0.55"/>
<line x1="172.00" y1="62.40" x2="88.00" y2="62.40" stroke="#00FFFF" stroke-width="2.4" stroke-linecap="round" opacity="0.55"/>
<line x1="130.00" y1="81.60" x2="130.00" y2="81.60" stroke="#00FFFF" stroke-width="2.4" stroke-linecap="round" opacity="0.55"/>
<line x1="88.00" y1="100.80" x2="172.00" y2="100.80" stroke="#FF00FF" stroke-width="2.4" stroke-linecap="round" opacity="0.55"/>
<line x1="130.00" y1="120.00" x2="130.00" y2="120.00" stroke="#FF00FF" stroke-width="2.4" stroke-linecap="round" opacity="0.55"/>
<line x1="172.00" y1="139.20" x2="88.00" y2="139.20" stroke="#00FFFF" stroke-width="2.4" stroke-linecap="round" opacity="0.55"/>
<line x1="130.00" y1="158.40" x2="130.00" y2="158.40" stroke="#00FFFF" stroke-width="2.4" stroke-linecap="round" opacity="0.55"/>
<line x1="88.00" y1="177.60" x2="172.00" y2="177.60" stroke="#FF00FF" stroke-width="2.4" stroke-linecap="round" opacity="0.55"/>
<line x1="130.00" y1="196.80" x2="130.00" y2="196.80" stroke="#FF00FF" stroke-width="2.4" stroke-linecap="round" opacity="0.55"/>

    <path d="M130.00,43.20 L134.39,44.48 L138.73,45.76 L142.98,47.04 L147.08,48.32 L151.00,49.60 L154.69,50.88 L158.10,52.16 L161.21,53.44 L163.98,54.72 L166.37,56.00 L168.37,57.28 L169.94,58.56 L171.08,59.84 L171.77,61.12 L172.00,62.40 L171.77,63.68 L171.08,64.96 L169.94,66.24 L168.37,67.52 L166.37,68.80 L163.98,70.08 L161.21,71.36 L158.10,72.64 L154.69,73.92 L151.00,75.20 L147.08,76.48 L142.98,77.76 L138.73,79.04 L134.39,80.32 L130.00,81.60 L125.61,82.88 L121.27,84.16 L117.02,85.44 L112.92,86.72 L109.00,88.00 L105.31,89.28 L101.90,90.56 L98.79,91.84 L96.02,93.12 L93.63,94.40 L91.63,95.68 L90.06,96.96 L88.92,98.24 L88.23,99.52 L88.00,100.80 L88.23,102.08 L88.92,103.36 L90.06,104.64 L91.63,105.92 L93.63,107.20 L96.02,108.48 L98.79,109.76 L101.90,111.04 L105.31,112.32 L109.00,113.60 L112.92,114.88 L117.02,116.16 L121.27,117.44 L125.61,118.72 L130.00,120.00 L134.39,121.28 L138.73,122.56 L142.98,123.84 L147.08,125.12 L151.00,126.40 L154.69,127.68 L158.10,128.96 L161.21,130.24 L163.98,131.52 L166.37,132.80 L168.37,134.08 L169.94,135.36 L171.08,136.64 L171.77,137.92 L172.00,139.20 L171.77,140.48 L171.08,141.76 L169.94,143.04 L168.37,144.32 L166.37,145.60 L163.98,146.88 L161.21,148.16 L158.10,149.44 L154.69,150.72 L151.00,152.00 L147.08,153.28 L142.98,154.56 L138.73,155.84 L134.39,157.12 L130.00,158.40 L125.61,159.68 L121.27,160.96 L117.02,162.24 L112.92,163.52 L109.00,164.80 L105.31,166.08 L101.90,167.36 L98.79,168.64 L96.02,169.92 L93.63,171.20 L91.63,172.48 L90.06,173.76 L88.92,175.04 L88.23,176.32 L88.00,177.60 L88.23,178.88 L88.92,180.16 L90.06,181.44 L91.63,182.72 L93.63,184.00 L96.02,185.28 L98.79,186.56 L101.90,187.84 L105.31,189.12 L109.00,190.40 L112.92,191.68 L117.02,192.96 L121.27,194.24 L125.61,195.52 L130.00,196.80" fill="none" stroke="#00FFFF" stroke-width="5" stroke-linecap="round"/>
    <path d="M130.00,43.20 L125.61,44.48 L121.27,45.76 L117.02,47.04 L112.92,48.32 L109.00,49.60 L105.31,50.88 L101.90,52.16 L98.79,53.44 L96.02,54.72 L93.63,56.00 L91.63,57.28 L90.06,58.56 L88.92,59.84 L88.23,61.12 L88.00,62.40 L88.23,63.68 L88.92,64.96 L90.06,66.24 L91.63,67.52 L93.63,68.80 L96.02,70.08 L98.79,71.36 L101.90,72.64 L105.31,73.92 L109.00,75.20 L112.92,76.48 L117.02,77.76 L121.27,79.04 L125.61,80.32 L130.00,81.60 L134.39,82.88 L138.73,84.16 L142.98,85.44 L147.08,86.72 L151.00,88.00 L154.69,89.28 L158.10,90.56 L161.21,91.84 L163.98,93.12 L166.37,94.40 L168.37,95.68 L169.94,96.96 L171.08,98.24 L171.77,99.52 L172.00,100.80 L171.77,102.08 L171.08,103.36 L169.94,104.64 L168.37,105.92 L166.37,107.20 L163.98,108.48 L161.21,109.76 L158.10,111.04 L154.69,112.32 L151.00,113.60 L147.08,114.88 L142.98,116.16 L138.73,117.44 L134.39,118.72 L130.00,120.00 L125.61,121.28 L121.27,122.56 L117.02,123.84 L112.92,125.12 L109.00,126.40 L105.31,127.68 L101.90,128.96 L98.79,130.24 L96.02,131.52 L93.63,132.80 L91.63,134.08 L90.06,135.36 L88.92,136.64 L88.23,137.92 L88.00,139.20 L88.23,140.48 L88.92,141.76 L90.06,143.04 L91.63,144.32 L93.63,145.60 L96.02,146.88 L98.79,148.16 L101.90,149.44 L105.31,150.72 L109.00,152.00 L112.92,153.28 L117.02,154.56 L121.27,155.84 L125.61,157.12 L130.00,158.40 L134.39,159.68 L138.73,160.96 L142.98,162.24 L147.08,163.52 L151.00,164.80 L154.69,166.08 L158.10,167.36 L161.21,168.64 L163.98,169.92 L166.37,171.20 L168.37,172.48 L169.94,173.76 L171.08,175.04 L171.77,176.32 L172.00,177.60 L171.77,178.88 L171.08,180.16 L169.94,181.44 L168.37,182.72 L166.37,184.00 L163.98,185.28 L161.21,186.56 L158.10,187.84 L154.69,189.12 L151.00,190.40 L147.08,191.68 L142.98,192.96 L138.73,194.24 L134.39,195.52 L130.00,196.80" fill="none" stroke="#FF00FF" stroke-width="5" stroke-linecap="round"/>
    <circle cx="130.00" cy="43.20" r="4" fill="#00FFFF"/><circle cx="130.00" cy="43.20" r="4" fill="#FF00FF"/><circle cx="172.00" cy="62.40" r="4" fill="#00FFFF"/><circle cx="88.00" cy="62.40" r="4" fill="#FF00FF"/><circle cx="130.00" cy="81.60" r="4" fill="#00FFFF"/><circle cx="130.00" cy="81.60" r="4" fill="#FF00FF"/><circle cx="88.00" cy="100.80" r="4" fill="#00FFFF"/><circle cx="172.00" cy="100.80" r="4" fill="#FF00FF"/><circle cx="130.00" cy="120.00" r="4" fill="#00FFFF"/><circle cx="130.00" cy="120.00" r="4" fill="#FF00FF"/><circle cx="172.00" cy="139.20" r="4" fill="#00FFFF"/><circle cx="88.00" cy="139.20" r="4" fill="#FF00FF"/><circle cx="130.00" cy="158.40" r="4" fill="#00FFFF"/><circle cx="130.00" cy="158.40" r="4" fill="#FF00FF"/><circle cx="88.00" cy="177.60" r="4" fill="#00FFFF"/><circle cx="172.00" cy="177.60" r="4" fill="#FF00FF"/><circle cx="130.00" cy="196.80" r="4" fill="#00FFFF"/><circle cx="130.00" cy="196.80" r="4" fill="#FF00FF"/>
  </g>
  <!-- wordmark -->
  <text x="208" y="150" font-family="Arial, Helvetica, sans-serif" font-size="74" font-weight="900" letter-spacing="4" fill="#e0f0ff">TWIST</text>
  <text x="212" y="190" font-family="Arial, Helvetica, sans-serif" font-size="30" font-weight="700" letter-spacing="6" fill="#FF9C00">.LIKE<tspan fill="#00FFFF">.</tspan><tspan fill="#9fb6cc">AUDIO</tspan></text>
</svg>