<svg xmlns="http://www.w3.org/2000/svg" viewBox="0 0 512 512" width="512" height="512">
  <defs>
    <linearGradient id="bg" x1="0" y1="0" x2="0" y2="1">
      <stop offset="0" stop-color="#55ffff"/><stop offset="1" stop-color="#236a6f"/>
    </linearGradient>
    <linearGradient id="sheen" x1="0" y1="0" x2="0" y2="1">
      <stop offset="0" stop-color="#ffffff" stop-opacity=".28"/>
      <stop offset=".5" stop-color="#ffffff" stop-opacity=".04"/>
      <stop offset="1" stop-color="#ffffff" stop-opacity="0"/>
    </linearGradient>
    <filter id="gsh" x="-20%" y="-20%" width="140%" height="140%">
      <feDropShadow dx="0" dy="10" stdDeviation="14" flood-color="#000" flood-opacity="0.35"/>
    </filter>
  </defs>
  <rect x="16" y="16" width="480" height="480" rx="108" fill="url(#bg)"/>
  <rect x="16" y="16" width="480" height="480" rx="108" fill="url(#sheen)"/>
  <rect x="22" y="22" width="468" height="468" rx="102" fill="none" stroke="#ffffff" stroke-opacity=".18" stroke-width="3"/>
  <g filter="url(#gsh)" fill="#F4F8FF" stroke="#F4F8FF">
    <path d="M 244 128 h 24 v 96 l -12 14 -12 -14 z" stroke="none"/>
    <rect x="128" y="256" width="256" height="44" rx="10" fill="none" stroke-width="12"/>
    <rect x="140" y="266" width="88" height="24" rx="6" stroke="none"/>
    <rect x="240" y="266" width="56" height="24" rx="6" stroke="none" opacity=".7"/>
    <rect x="128" y="322" width="256" height="44" rx="10" fill="none" stroke-width="12"/>
    <rect x="168" y="332" width="120" height="24" rx="6" stroke="none" opacity=".85"/></g>
</svg>
