<svg xmlns="http://www.w3.org/2000/svg" viewBox="0 0 512 512" width="512" height="512">
  <defs>
    <linearGradient id="bg" x1="0" y1="0" x2="0" y2="1">
      <stop offset="0" stop-color="#ffabff"/><stop offset="1" stop-color="#704d7e"/>
    </linearGradient>
    <linearGradient id="sheen" x1="0" y1="0" x2="0" y2="1">
      <stop offset="0" stop-color="#ffffff" stop-opacity=".38"/>
      <stop offset=".5" stop-color="#ffffff" stop-opacity=".07"/>
      <stop offset="1" stop-color="#ffffff" stop-opacity="0"/>
    </linearGradient>
    <filter id="gsh" x="-20%" y="-20%" width="140%" height="140%">
      <feDropShadow dx="0" dy="10" stdDeviation="14" flood-color="#000" flood-opacity="0.35"/>
    </filter>
    <filter id="halo" x="-30%" y="-30%" width="160%" height="160%">
      <feGaussianBlur stdDeviation="8"/>
    </filter>
    <filter id="tglow" x="-40%" y="-40%" width="180%" height="180%">
      <feDropShadow dx="0" dy="0" stdDeviation="8" flood-color="#ffb0fe" flood-opacity="0.95"/>
    </filter>
    <clipPath id="sq"><rect x="16" y="16" width="480" height="480" rx="108"/></clipPath>
  </defs>
  <rect x="16" y="16" width="480" height="480" rx="108" fill="none" stroke="#ffb0fe" stroke-width="10" filter="url(#halo)"/>
  <rect x="16" y="16" width="480" height="480" rx="108" fill="url(#bg)"/>
  <rect x="16" y="16" width="480" height="480" rx="108" fill="url(#sheen)"/>
  <rect x="22" y="22" width="468" height="468" rx="102" fill="none" stroke="#ffb0fe" stroke-opacity=".65" stroke-width="4"/>
  <g filter="url(#gsh)" fill="#FFFFFF" stroke="#FFFFFF">
    <rect x="140" y="146" width="232" height="52" rx="12" stroke="none"/>
    <rect x="140" y="222" width="232" height="52" rx="12" stroke="none" opacity=".75"/>
    <rect x="140" y="298" width="232" height="52" rx="12" stroke="none" opacity=".5"/>
    <circle cx="352" cy="172" r="12" fill="#0a1326" stroke="none"/></g>
  <rect x="16" y="390" width="480" height="106" fill="#000" opacity=".3" clip-path="url(#sq)"/>
  <text x="256" y="454" text-anchor="middle" fill="#FFFFFF" filter="url(#tglow)"
    font-family="'Courier New',Consolas,monospace" font-weight="900" letter-spacing="3"
    font-size="56">FLOORS</text>
</svg>
