<svg xmlns="http://www.w3.org/2000/svg" viewBox="0 0 240 240" width="240" height="240" role="img" aria-label="Twist.Like.audio">
  <defs>
    <radialGradient id="bgg" cx="50%" cy="42%" r="75%">
      <stop offset="0%" stop-color="#1a2a4c"/>
      <stop offset="80%" stop-color="#050a15"/>
    </radialGradient>
    <filter id="glow" x="-40%" y="-40%" width="180%" height="180%">
      <feGaussianBlur stdDeviation="2.2" result="b"/>
      <feMerge><feMergeNode in="b"/><feMergeNode in="SourceGraphic"/></feMerge>
    </filter>
  </defs>
  <!-- LCARS rounded panel -->
  <rect x="6" y="6" width="228" height="228" rx="46" ry="46" fill="url(#bgg)" stroke="rgba(255,255,255,0.10)"/>
  <!-- LCARS elbow accents: top-left orange, bottom-right lilac -->
  <path d="M6 70 L6 52 A46 46 0 0 1 52 6 L78 6 L78 26 L60 26 A34 34 0 0 0 26 60 L26 70 Z" fill="#FF9C00"/>
  <path d="M234 170 L234 188 A46 46 0 0 1 188 234 L162 234 L162 214 L180 214 A34 34 0 0 0 214 180 L214 170 Z" fill="#CC99CC"/>
  <g filter="url(#glow)">
    <line x1="120.00" y1="38.40" x2="120.00" y2="38.40" stroke="#00FFFF" stroke-width="2.4" stroke-linecap="round" opacity="0.55"/>
<line x1="168.00" y1="58.80" x2="72.00" y2="58.80" stroke="#00FFFF" stroke-width="2.4" stroke-linecap="round" opacity="0.55"/>
<line x1="120.00" y1="79.20" x2="120.00" y2="79.20" stroke="#00FFFF" stroke-width="2.4" stroke-linecap="round" opacity="0.55"/>
<line x1="72.00" y1="99.60" x2="168.00" y2="99.60" stroke="#FF00FF" stroke-width="2.4" stroke-linecap="round" opacity="0.55"/>
<line x1="120.00" y1="120.00" x2="120.00" y2="120.00" stroke="#FF00FF" stroke-width="2.4" stroke-linecap="round" opacity="0.55"/>
<line x1="168.00" y1="140.40" x2="72.00" y2="140.40" stroke="#00FFFF" stroke-width="2.4" stroke-linecap="round" opacity="0.55"/>
<line x1="120.00" y1="160.80" x2="120.00" y2="160.80" stroke="#00FFFF" stroke-width="2.4" stroke-linecap="round" opacity="0.55"/>
<line x1="72.00" y1="181.20" x2="168.00" y2="181.20" stroke="#FF00FF" stroke-width="2.4" stroke-linecap="round" opacity="0.55"/>
<line x1="120.00" y1="201.60" x2="120.00" y2="201.60" stroke="#FF00FF" stroke-width="2.4" stroke-linecap="round" opacity="0.55"/>

    <path d="M120.00,38.40 L125.02,39.76 L129.98,41.12 L134.83,42.48 L139.52,43.84 L144.00,45.20 L148.21,46.56 L152.12,47.92 L155.67,49.28 L158.83,50.64 L161.57,52.00 L163.85,53.36 L165.65,54.72 L166.95,56.08 L167.74,57.44 L168.00,58.80 L167.74,60.16 L166.95,61.52 L165.65,62.88 L163.85,64.24 L161.57,65.60 L158.83,66.96 L155.67,68.32 L152.12,69.68 L148.21,71.04 L144.00,72.40 L139.52,73.76 L134.83,75.12 L129.98,76.48 L125.02,77.84 L120.00,79.20 L114.98,80.56 L110.02,81.92 L105.17,83.28 L100.48,84.64 L96.00,86.00 L91.79,87.36 L87.88,88.72 L84.33,90.08 L81.17,91.44 L78.43,92.80 L76.15,94.16 L74.35,95.52 L73.05,96.88 L72.26,98.24 L72.00,99.60 L72.26,100.96 L73.05,102.32 L74.35,103.68 L76.15,105.04 L78.43,106.40 L81.17,107.76 L84.33,109.12 L87.88,110.48 L91.79,111.84 L96.00,113.20 L100.48,114.56 L105.17,115.92 L110.02,117.28 L114.98,118.64 L120.00,120.00 L125.02,121.36 L129.98,122.72 L134.83,124.08 L139.52,125.44 L144.00,126.80 L148.21,128.16 L152.12,129.52 L155.67,130.88 L158.83,132.24 L161.57,133.60 L163.85,134.96 L165.65,136.32 L166.95,137.68 L167.74,139.04 L168.00,140.40 L167.74,141.76 L166.95,143.12 L165.65,144.48 L163.85,145.84 L161.57,147.20 L158.83,148.56 L155.67,149.92 L152.12,151.28 L148.21,152.64 L144.00,154.00 L139.52,155.36 L134.83,156.72 L129.98,158.08 L125.02,159.44 L120.00,160.80 L114.98,162.16 L110.02,163.52 L105.17,164.88 L100.48,166.24 L96.00,167.60 L91.79,168.96 L87.88,170.32 L84.33,171.68 L81.17,173.04 L78.43,174.40 L76.15,175.76 L74.35,177.12 L73.05,178.48 L72.26,179.84 L72.00,181.20 L72.26,182.56 L73.05,183.92 L74.35,185.28 L76.15,186.64 L78.43,188.00 L81.17,189.36 L84.33,190.72 L87.88,192.08 L91.79,193.44 L96.00,194.80 L100.48,196.16 L105.17,197.52 L110.02,198.88 L114.98,200.24 L120.00,201.60" fill="none" stroke="#00FFFF" stroke-width="6" stroke-linecap="round"/>
    <path d="M120.00,38.40 L114.98,39.76 L110.02,41.12 L105.17,42.48 L100.48,43.84 L96.00,45.20 L91.79,46.56 L87.88,47.92 L84.33,49.28 L81.17,50.64 L78.43,52.00 L76.15,53.36 L74.35,54.72 L73.05,56.08 L72.26,57.44 L72.00,58.80 L72.26,60.16 L73.05,61.52 L74.35,62.88 L76.15,64.24 L78.43,65.60 L81.17,66.96 L84.33,68.32 L87.88,69.68 L91.79,71.04 L96.00,72.40 L100.48,73.76 L105.17,75.12 L110.02,76.48 L114.98,77.84 L120.00,79.20 L125.02,80.56 L129.98,81.92 L134.83,83.28 L139.52,84.64 L144.00,86.00 L148.21,87.36 L152.12,88.72 L155.67,90.08 L158.83,91.44 L161.57,92.80 L163.85,94.16 L165.65,95.52 L166.95,96.88 L167.74,98.24 L168.00,99.60 L167.74,100.96 L166.95,102.32 L165.65,103.68 L163.85,105.04 L161.57,106.40 L158.83,107.76 L155.67,109.12 L152.12,110.48 L148.21,111.84 L144.00,113.20 L139.52,114.56 L134.83,115.92 L129.98,117.28 L125.02,118.64 L120.00,120.00 L114.98,121.36 L110.02,122.72 L105.17,124.08 L100.48,125.44 L96.00,126.80 L91.79,128.16 L87.88,129.52 L84.33,130.88 L81.17,132.24 L78.43,133.60 L76.15,134.96 L74.35,136.32 L73.05,137.68 L72.26,139.04 L72.00,140.40 L72.26,141.76 L73.05,143.12 L74.35,144.48 L76.15,145.84 L78.43,147.20 L81.17,148.56 L84.33,149.92 L87.88,151.28 L91.79,152.64 L96.00,154.00 L100.48,155.36 L105.17,156.72 L110.02,158.08 L114.98,159.44 L120.00,160.80 L125.02,162.16 L129.98,163.52 L134.83,164.88 L139.52,166.24 L144.00,167.60 L148.21,168.96 L152.12,170.32 L155.67,171.68 L158.83,173.04 L161.57,174.40 L163.85,175.76 L165.65,177.12 L166.95,178.48 L167.74,179.84 L168.00,181.20 L167.74,182.56 L166.95,183.92 L165.65,185.28 L163.85,186.64 L161.57,188.00 L158.83,189.36 L155.67,190.72 L152.12,192.08 L148.21,193.44 L144.00,194.80 L139.52,196.16 L134.83,197.52 L129.98,198.88 L125.02,200.24 L120.00,201.60" fill="none" stroke="#FF00FF" stroke-width="6" stroke-linecap="round"/>
    <circle cx="120.00" cy="38.40" r="4.4" fill="#00FFFF"/><circle cx="120.00" cy="38.40" r="4.4" fill="#FF00FF"/><circle cx="168.00" cy="58.80" r="4.4" fill="#00FFFF"/><circle cx="72.00" cy="58.80" r="4.4" fill="#FF00FF"/><circle cx="120.00" cy="79.20" r="4.4" fill="#00FFFF"/><circle cx="120.00" cy="79.20" r="4.4" fill="#FF00FF"/><circle cx="72.00" cy="99.60" r="4.4" fill="#00FFFF"/><circle cx="168.00" cy="99.60" r="4.4" fill="#FF00FF"/><circle cx="120.00" cy="120.00" r="4.4" fill="#00FFFF"/><circle cx="120.00" cy="120.00" r="4.4" fill="#FF00FF"/><circle cx="168.00" cy="140.40" r="4.4" fill="#00FFFF"/><circle cx="72.00" cy="140.40" r="4.4" fill="#FF00FF"/><circle cx="120.00" cy="160.80" r="4.4" fill="#00FFFF"/><circle cx="120.00" cy="160.80" r="4.4" fill="#FF00FF"/><circle cx="72.00" cy="181.20" r="4.4" fill="#00FFFF"/><circle cx="168.00" cy="181.20" r="4.4" fill="#FF00FF"/><circle cx="120.00" cy="201.60" r="4.4" fill="#00FFFF"/><circle cx="120.00" cy="201.60" r="4.4" fill="#FF00FF"/>
  </g>
</svg>