<svg xmlns="http://www.w3.org/2000/svg" viewBox="0 0 512 512" width="512" height="512">
  <defs>
    <linearGradient id="bg" x1="0" y1="0" x2="0" y2="1">
      <stop offset="0" stop-color="#4ac9ed"/><stop offset="1" stop-color="#206165"/>
    </linearGradient>
    <linearGradient id="sheen" x1="0" y1="0" x2="0" y2="1">
      <stop offset="0" stop-color="#ffffff" stop-opacity=".26"/>
      <stop offset=".5" stop-color="#ffffff" stop-opacity=".07"/>
      <stop offset="1" stop-color="#ffffff" stop-opacity="0"/>
    </linearGradient>
    <filter id="gsh" x="-20%" y="-20%" width="140%" height="140%">
      <feDropShadow dx="0" dy="10" stdDeviation="14" flood-color="#000" flood-opacity="0.35"/>
    </filter>
    <filter id="halo" x="-30%" y="-30%" width="160%" height="160%">
      <feGaussianBlur stdDeviation="8"/>
    </filter>
  </defs>
  <rect x="16" y="16" width="480" height="480" rx="108" fill="none" stroke="#65b3ff" stroke-width="10" filter="url(#halo)"/>
  <rect x="16" y="16" width="480" height="480" rx="108" fill="url(#bg)"/>
  <rect x="16" y="16" width="480" height="480" rx="108" fill="url(#sheen)"/>
  <rect x="22" y="22" width="468" height="468" rx="102" fill="none" stroke="#65b3ff" stroke-opacity=".65" stroke-width="4"/>
  <g filter="url(#gsh)" fill="#FFFFFF" stroke="#FFFFFF">
    <rect x="122" y="150" width="268" height="212" rx="8" fill="none" stroke-width="14"/>
    <rect x="122" y="150" width="268" height="46" stroke="none"/>
    <rect x="348" y="162" width="24" height="22" fill="#0a1326" stroke="none"/>
    <line x1="196" y1="222" x2="196" y2="336" stroke-width="10"/>
    <line x1="270" y1="222" x2="270" y2="336" stroke-width="10"/>
    <line x1="148" y1="264" x2="364" y2="264" stroke-width="10"/>
    <line x1="148" y1="306" x2="364" y2="306" stroke-width="10"/>
    <rect x="278" y="270" width="30" height="28" stroke="none"/></g>
</svg>
