<svg xmlns="http://www.w3.org/2000/svg" viewBox="0 0 512 512" width="512" height="512">
  <defs>
    <linearGradient id="bg" x1="0" y1="0" x2="0" y2="1">
      <stop offset="0" stop-color="#7b90b1"/><stop offset="1" stop-color="#303845"/>
    </linearGradient>
    <linearGradient id="sheen" x1="0" y1="0" x2="0" y2="1">
      <stop offset="0" stop-color="#ffffff" stop-opacity=".18"/>
      <stop offset=".5" stop-color="#ffffff" stop-opacity=".04"/>
      <stop offset="1" stop-color="#ffffff" stop-opacity="0"/>
    </linearGradient>
    <filter id="gsh" x="-20%" y="-20%" width="140%" height="140%">
      <feDropShadow dx="0" dy="10" stdDeviation="14" flood-color="#000" flood-opacity="0.35"/>
    </filter>
  </defs>
  <rect x="16" y="16" width="480" height="480" rx="108" fill="url(#bg)"/>
  <rect x="16" y="16" width="480" height="480" rx="108" fill="url(#sheen)"/>
  <rect x="22" y="22" width="468" height="468" rx="102" fill="none" stroke="#ffffff" stroke-opacity=".18" stroke-width="3"/>
  <g filter="url(#gsh)" fill="#F4F8FF" stroke="#F4F8FF">
    <path d="M 256 140 l 14 34 a 88 88 0 0 1 30 12 l 35 -12 20 34 -26 26 a 88 88 0 0 1 0 32 l 26 26 -20 34 -35 -12 a 88 88 0 0 1 -30 12 l -14 34 -14 -34 a 88 88 0 0 1 -30 -12 l -35 12 -20 -34 26 -26 a 88 88 0 0 1 0 -32 l -26 -26 20 -34 35 12 a 88 88 0 0 1 30 -12 z" stroke="none"/>
    <circle cx="256" cy="256" r="44" fill="#0a1326" stroke="none"/></g>
</svg>
