<svg xmlns="http://www.w3.org/2000/svg" viewBox="0 0 512 512" width="512" height="512">
  <defs>
    <linearGradient id="bg" x1="0" y1="0" x2="0" y2="1">
      <stop offset="0" stop-color="#7fbd6a"/><stop offset="1" stop-color="#3c502d"/>
    </linearGradient>
    <linearGradient id="sheen" x1="0" y1="0" x2="0" y2="1">
      <stop offset="0" stop-color="#ffffff" stop-opacity=".26"/>
      <stop offset=".5" stop-color="#ffffff" stop-opacity=".07"/>
      <stop offset="1" stop-color="#ffffff" stop-opacity="0"/>
    </linearGradient>
    <filter id="gsh" x="-20%" y="-20%" width="140%" height="140%">
      <feDropShadow dx="0" dy="10" stdDeviation="14" flood-color="#000" flood-opacity="0.35"/>
    </filter>
    <filter id="halo" x="-30%" y="-30%" width="160%" height="160%">
      <feGaussianBlur stdDeviation="8"/>
    </filter>
  </defs>
  <rect x="16" y="16" width="480" height="480" rx="108" fill="none" stroke="#90ffa2" stroke-width="10" filter="url(#halo)">
    <animate attributeName="stroke-width" values="10;18;10" dur="2s" repeatCount="indefinite"/>
    <animate attributeName="stroke-opacity" values="1;.55;1" dur="2s" repeatCount="indefinite"/>
  </rect>
  <rect x="16" y="16" width="480" height="480" rx="108" fill="url(#bg)"/>
  <rect x="16" y="16" width="480" height="480" rx="108" fill="url(#sheen)"/>
  <rect x="22" y="22" width="468" height="468" rx="102" fill="none" stroke="#90ffa2" stroke-opacity=".65" stroke-width="4"/>
  <g filter="url(#gsh)" fill="#FFFFFF" stroke="#FFFFFF">
    <g>
      <animateTransform attributeName="transform" type="translate" values="0 0;12 -12;0 0" dur="2.2s" repeatCount="indefinite"/>
      <rect x="178" y="128" width="204" height="204" rx="20" fill="none" stroke-width="16" opacity=".65"/>
      <path d="M 196 146 l 168 168 M 196 208 l 106 106 M 258 146 l 106 106" stroke-width="10" opacity=".45"/>
    </g>
    <g>
      <animateTransform attributeName="transform" type="translate" values="0 0;-12 12;0 0" dur="2.2s" repeatCount="indefinite"/>
      <rect x="128" y="180" width="204" height="204" rx="20" stroke="none"/>
    </g></g>
</svg>
