<svg xmlns="http://www.w3.org/2000/svg" viewBox="0 0 512 512" width="512" height="512">
  <defs>
    <linearGradient id="bg" x1="0" y1="0" x2="0" y2="1">
      <stop offset="0" stop-color="#ffd775"/><stop offset="1" stop-color="#804e32"/>
    </linearGradient>
    <linearGradient id="sheen" x1="0" y1="0" x2="0" y2="1">
      <stop offset="0" stop-color="#ffffff" stop-opacity=".26"/>
      <stop offset=".5" stop-color="#ffffff" stop-opacity=".07"/>
      <stop offset="1" stop-color="#ffffff" stop-opacity="0"/>
    </linearGradient>
    <filter id="gsh" x="-20%" y="-20%" width="140%" height="140%">
      <feDropShadow dx="0" dy="10" stdDeviation="14" flood-color="#000" flood-opacity="0.35"/>
    </filter>
    <filter id="halo" x="-30%" y="-30%" width="160%" height="160%">
      <feGaussianBlur stdDeviation="8"/>
    </filter>
  </defs>
  <rect x="16" y="16" width="480" height="480" rx="108" fill="none" stroke="#ffff9e" stroke-width="10" filter="url(#halo)">
    <animate attributeName="stroke-width" values="10;18;10" dur="2s" repeatCount="indefinite"/>
    <animate attributeName="stroke-opacity" values="1;.55;1" dur="2s" repeatCount="indefinite"/>
  </rect>
  <rect x="16" y="16" width="480" height="480" rx="108" fill="url(#bg)"/>
  <rect x="16" y="16" width="480" height="480" rx="108" fill="url(#sheen)"/>
  <rect x="22" y="22" width="468" height="468" rx="102" fill="none" stroke="#ffff9e" stroke-opacity=".65" stroke-width="4"/>
  <g filter="url(#gsh)" fill="#FFFFFF" stroke="#FFFFFF">
    <g>
      <animateTransform attributeName="transform" type="translate" values="0 0;0 -12;0 0" dur="1.6s" begin="0s" repeatCount="indefinite"/>
      <circle cx="212" cy="196" r="44" stroke="none" opacity=".65"/>
      <path d="M 132 348 q 0 -84 80 -84 q 80 0 80 84 z" stroke="none" opacity=".65"/>
    </g>
    <g>
      <animateTransform attributeName="transform" type="translate" values="0 0;0 -12;0 0" dur="1.6s" begin=".8s" repeatCount="indefinite"/>
      <circle cx="300" cy="212" r="52" stroke="none"/>
      <path d="M 204 384 q 0 -96 96 -96 q 96 0 96 96 z" stroke="none"/>
    </g></g>
</svg>
