<svg xmlns="http://www.w3.org/2000/svg" viewBox="0 0 512 512" width="512" height="512">
  <defs>
    <linearGradient id="bg" x1="0" y1="0" x2="0" y2="1">
      <stop offset="0" stop-color="#4ac9ed"/><stop offset="1" stop-color="#206165"/>
    </linearGradient>
    <linearGradient id="sheen" x1="0" y1="0" x2="0" y2="1">
      <stop offset="0" stop-color="#ffffff" stop-opacity=".26"/>
      <stop offset=".5" stop-color="#ffffff" stop-opacity=".07"/>
      <stop offset="1" stop-color="#ffffff" stop-opacity="0"/>
    </linearGradient>
    <filter id="gsh" x="-20%" y="-20%" width="140%" height="140%">
      <feDropShadow dx="0" dy="10" stdDeviation="14" flood-color="#000" flood-opacity="0.35"/>
    </filter>
    <filter id="halo" x="-30%" y="-30%" width="160%" height="160%">
      <feGaussianBlur stdDeviation="8"/>
    </filter>
  </defs>
  <rect x="16" y="16" width="480" height="480" rx="108" fill="none" stroke="#65b3ff" stroke-width="10" filter="url(#halo)">
    <animate attributeName="stroke-width" values="10;18;10" dur="2s" repeatCount="indefinite"/>
    <animate attributeName="stroke-opacity" values="1;.55;1" dur="2s" repeatCount="indefinite"/>
  </rect>
  <rect x="16" y="16" width="480" height="480" rx="108" fill="url(#bg)"/>
  <rect x="16" y="16" width="480" height="480" rx="108" fill="url(#sheen)"/>
  <rect x="22" y="22" width="468" height="468" rx="102" fill="none" stroke="#65b3ff" stroke-opacity=".65" stroke-width="4"/>
  <g filter="url(#gsh)" fill="#FFFFFF" stroke="#FFFFFF">
    <circle cx="256" cy="256" r="140" fill="none" stroke-width="22"/>
    <g>
      <animateTransform attributeName="transform" type="rotate" from="0 256 256" to="360 256 256" dur="2.2s" repeatCount="indefinite"/>
      <circle cx="256" cy="149" r="13" stroke="none" opacity=".9"/>
      <circle cx="349" cy="203" r="13" stroke="none" opacity=".9"/>
      <circle cx="349" cy="309" r="13" stroke="none" opacity=".9"/>
      <circle cx="256" cy="363" r="13" stroke="none" opacity=".9"/>
      <circle cx="163" cy="309" r="13" stroke="none" opacity=".9"/>
      <circle cx="163" cy="203" r="13" stroke="none" opacity=".9"/>
    </g>
    <path d="M 216 186 l 116 70 -116 70 z" stroke="none"/></g>
</svg>
