<svg xmlns="http://www.w3.org/2000/svg" viewBox="0 0 512 512" width="512" height="512">
  <defs>
    <linearGradient id="bg" x1="0" y1="0" x2="0" y2="1">
      <stop offset="0" stop-color="#f7b7f5"/><stop offset="1" stop-color="#654e69"/>
    </linearGradient>
    <linearGradient id="sheen" x1="0" y1="0" x2="0" y2="1">
      <stop offset="0" stop-color="#ffffff" stop-opacity=".26"/>
      <stop offset=".5" stop-color="#ffffff" stop-opacity=".07"/>
      <stop offset="1" stop-color="#ffffff" stop-opacity="0"/>
    </linearGradient>
    <filter id="gsh" x="-20%" y="-20%" width="140%" height="140%">
      <feDropShadow dx="0" dy="10" stdDeviation="14" flood-color="#000" flood-opacity="0.35"/>
    </filter>
    <filter id="halo" x="-30%" y="-30%" width="160%" height="160%">
      <feGaussianBlur stdDeviation="8"/>
    </filter>
  </defs>
  <rect x="16" y="16" width="480" height="480" rx="108" fill="none" stroke="#fff8ff" stroke-width="10" filter="url(#halo)">
    <animate attributeName="stroke-width" values="10;18;10" dur="2s" repeatCount="indefinite"/>
    <animate attributeName="stroke-opacity" values="1;.55;1" dur="2s" repeatCount="indefinite"/>
  </rect>
  <rect x="16" y="16" width="480" height="480" rx="108" fill="url(#bg)"/>
  <rect x="16" y="16" width="480" height="480" rx="108" fill="url(#sheen)"/>
  <rect x="22" y="22" width="468" height="468" rx="102" fill="none" stroke="#fff8ff" stroke-opacity=".65" stroke-width="4"/>
  <g filter="url(#gsh)" fill="#FFFFFF" stroke="#FFFFFF">
    <clipPath id="pscroll"><rect x="140" y="152" width="236" height="156"/></clipPath>
    <rect x="122" y="140" width="268" height="180" rx="20" fill="none" stroke-width="18"/>
    <g clip-path="url(#pscroll)">
      <g>
        <animateTransform attributeName="transform" type="translate" from="0 0" to="0 -120" dur="2.4s" repeatCount="indefinite"/>
        <line x1="156" y1="192" x2="356" y2="192" stroke-width="18" stroke-linecap="round"/>
        <line x1="156" y1="232" x2="326" y2="232" stroke-width="18" stroke-linecap="round"/>
        <line x1="156" y1="272" x2="346" y2="272" stroke-width="18" stroke-linecap="round"/>
        <line x1="156" y1="312" x2="356" y2="312" stroke-width="18" stroke-linecap="round"/>
        <line x1="156" y1="352" x2="326" y2="352" stroke-width="18" stroke-linecap="round"/>
        <line x1="156" y1="392" x2="346" y2="392" stroke-width="18" stroke-linecap="round"/>
        <line x1="156" y1="432" x2="356" y2="432" stroke-width="18" stroke-linecap="round"/>
      </g>
    </g>
    <g>
      <animateTransform attributeName="transform" type="translate" values="0 0;0 8;0 0" dur="1.2s" repeatCount="indefinite"/>
      <path d="M 236 392 l 20 -28 20 28 z" stroke="none"/><line x1="256" y1="368" x2="256" y2="330" stroke-width="14"/>
    </g></g>
</svg>
