<svg xmlns="http://www.w3.org/2000/svg" viewBox="0 0 512 512" width="512" height="512">
  <defs>
    <linearGradient id="bg" x1="0" y1="0" x2="0" y2="1">
      <stop offset="0" stop-color="#ffd775"/><stop offset="1" stop-color="#804e32"/>
    </linearGradient>
    <linearGradient id="sheen" x1="0" y1="0" x2="0" y2="1">
      <stop offset="0" stop-color="#ffffff" stop-opacity=".26"/>
      <stop offset=".5" stop-color="#ffffff" stop-opacity=".07"/>
      <stop offset="1" stop-color="#ffffff" stop-opacity="0"/>
    </linearGradient>
    <filter id="gsh" x="-20%" y="-20%" width="140%" height="140%">
      <feDropShadow dx="0" dy="10" stdDeviation="14" flood-color="#000" flood-opacity="0.35"/>
    </filter>
    <filter id="halo" x="-30%" y="-30%" width="160%" height="160%">
      <feGaussianBlur stdDeviation="8"/>
    </filter>
  </defs>
  <rect x="16" y="16" width="480" height="480" rx="108" fill="none" stroke="#ffff9e" stroke-width="10" filter="url(#halo)">
    <animate attributeName="stroke-width" values="10;18;10" dur="2s" repeatCount="indefinite"/>
    <animate attributeName="stroke-opacity" values="1;.55;1" dur="2s" repeatCount="indefinite"/>
  </rect>
  <rect x="16" y="16" width="480" height="480" rx="108" fill="url(#bg)"/>
  <rect x="16" y="16" width="480" height="480" rx="108" fill="url(#sheen)"/>
  <rect x="22" y="22" width="468" height="468" rx="102" fill="none" stroke="#ffff9e" stroke-opacity=".65" stroke-width="4"/>
  <g filter="url(#gsh)" fill="#FFFFFF" stroke="#FFFFFF">
    <path d="M 150 216 h 56 l 72 -60 v 200 l -72 -60 h -56 z" stroke="none"/>
    <path d="M 306 206 a 62 62 0 0 1 0 100" fill="none" stroke-width="20" stroke-linecap="round" opacity=".15">
      <animate attributeName="opacity" values=".15;1;.15" keyTimes="0;.3;1" dur="1.4s" begin="0s" repeatCount="indefinite"/></path>
    <path d="M 342 176 a 108 108 0 0 1 0 160" fill="none" stroke-width="20" stroke-linecap="round" opacity=".15">
      <animate attributeName="opacity" values=".15;1;.15" keyTimes="0;.3;1" dur="1.4s" begin=".22s" repeatCount="indefinite"/></path>
    <path d="M 374 150 a 148 148 0 0 1 0 212" fill="none" stroke-width="20" stroke-linecap="round" opacity=".15">
      <animate attributeName="opacity" values=".15;1;.15" keyTimes="0;.3;1" dur="1.4s" begin=".44s" repeatCount="indefinite"/></path></g>
</svg>
