<svg xmlns="http://www.w3.org/2000/svg" viewBox="0 0 512 512" width="512" height="512">
  <defs>
    <linearGradient id="bg" x1="0" y1="0" x2="0" y2="1">
      <stop offset="0" stop-color="#fa9961"/><stop offset="1" stop-color="#613b26"/>
    </linearGradient>
    <linearGradient id="sheen" x1="0" y1="0" x2="0" y2="1">
      <stop offset="0" stop-color="#ffffff" stop-opacity=".18"/>
      <stop offset=".5" stop-color="#ffffff" stop-opacity=".04"/>
      <stop offset="1" stop-color="#ffffff" stop-opacity="0"/>
    </linearGradient>
    <filter id="gsh" x="-20%" y="-20%" width="140%" height="140%">
      <feDropShadow dx="0" dy="10" stdDeviation="14" flood-color="#000" flood-opacity="0.35"/>
    </filter>
  </defs>
  <rect x="16" y="16" width="480" height="480" rx="108" fill="url(#bg)"/>
  <rect x="16" y="16" width="480" height="480" rx="108" fill="url(#sheen)"/>
  <rect x="22" y="22" width="468" height="468" rx="102" fill="none" stroke="#ffffff" stroke-opacity=".18" stroke-width="3"/>
  <g filter="url(#gsh)" fill="#F4F8FF" stroke="#F4F8FF">
    <rect x="232" y="126" width="92" height="158" rx="46" stroke="none"/>
    <path d="M 198 226 a 80 80 0 0 0 160 0" fill="none" stroke-width="18" stroke-linecap="round"/>
    <line x1="278" y1="308" x2="278" y2="352" stroke-width="18" stroke-linecap="round"/>
    <line x1="228" y1="368" x2="328" y2="368" stroke-width="18" stroke-linecap="round"/>
    <path d="M 158 190 a 70 70 0 0 0 0 128" fill="none" stroke-width="16" stroke-linecap="round"/>
    <path d="M 112 164 a 118 118 0 0 0 0 180" fill="none" stroke-width="16" stroke-linecap="round" opacity=".55"/></g>
</svg>
