<svg xmlns="http://www.w3.org/2000/svg" viewBox="0 0 512 512" width="512" height="512">
  <defs>
    <linearGradient id="bg" x1="0" y1="0" x2="0" y2="1">
      <stop offset="0" stop-color="#7f76f1"/><stop offset="1" stop-color="#323766"/>
    </linearGradient>
    <linearGradient id="sheen" x1="0" y1="0" x2="0" y2="1">
      <stop offset="0" stop-color="#ffffff" stop-opacity=".26"/>
      <stop offset=".5" stop-color="#ffffff" stop-opacity=".07"/>
      <stop offset="1" stop-color="#ffffff" stop-opacity="0"/>
    </linearGradient>
    <filter id="gsh" x="-20%" y="-20%" width="140%" height="140%">
      <feDropShadow dx="0" dy="10" stdDeviation="14" flood-color="#000" flood-opacity="0.35"/>
    </filter>
    <filter id="halo" x="-30%" y="-30%" width="160%" height="160%">
      <feGaussianBlur stdDeviation="8"/>
    </filter>
  </defs>
  <rect x="16" y="16" width="480" height="480" rx="108" fill="none" stroke="#f3a0ff" stroke-width="10" filter="url(#halo)">
    <animate attributeName="stroke-width" values="10;18;10" dur="2s" repeatCount="indefinite"/>
    <animate attributeName="stroke-opacity" values="1;.55;1" dur="2s" repeatCount="indefinite"/>
  </rect>
  <rect x="16" y="16" width="480" height="480" rx="108" fill="url(#bg)"/>
  <rect x="16" y="16" width="480" height="480" rx="108" fill="url(#sheen)"/>
  <rect x="22" y="22" width="468" height="468" rx="102" fill="none" stroke="#f3a0ff" stroke-opacity=".65" stroke-width="4"/>
  <g filter="url(#gsh)" fill="#FFFFFF" stroke="#FFFFFF">
    <path d="M 132 190 q 31 -34 62 0 t 62 0 t 62 0 t 62 0" fill="none" stroke-width="22" stroke-linecap="round">
      <animate attributeName="d" values="M 132 190 q 31 -34 62 0 t 62 0 t 62 0 t 62 0;M 132 190 q 31 34 62 0 t 62 0 t 62 0 t 62 0;M 132 190 q 31 -34 62 0 t 62 0 t 62 0 t 62 0" dur="1.1s" begin="0s" repeatCount="indefinite"/></path>
    <path d="M 132 256 q 31 -34 62 0 t 62 0 t 62 0 t 62 0" fill="none" stroke-width="22" stroke-linecap="round" opacity=".75">
      <animate attributeName="d" values="M 132 256 q 31 -34 62 0 t 62 0 t 62 0 t 62 0;M 132 256 q 31 34 62 0 t 62 0 t 62 0 t 62 0;M 132 256 q 31 -34 62 0 t 62 0 t 62 0 t 62 0" dur="1.1s" begin=".18s" repeatCount="indefinite"/></path>
    <path d="M 132 322 q 31 -34 62 0 t 62 0 t 62 0 t 62 0" fill="none" stroke-width="22" stroke-linecap="round" opacity=".5">
      <animate attributeName="d" values="M 132 322 q 31 -34 62 0 t 62 0 t 62 0 t 62 0;M 132 322 q 31 34 62 0 t 62 0 t 62 0 t 62 0;M 132 322 q 31 -34 62 0 t 62 0 t 62 0 t 62 0" dur="1.1s" begin=".36s" repeatCount="indefinite"/></path></g>
</svg>
