<svg xmlns="http://www.w3.org/2000/svg" viewBox="0 0 512 512" width="512" height="512">
  <defs>
    <linearGradient id="bg" x1="0" y1="0" x2="0" y2="1">
      <stop offset="0" stop-color="#626bc8"/><stop offset="1" stop-color="#26294e"/>
    </linearGradient>
    <linearGradient id="sheen" x1="0" y1="0" x2="0" y2="1">
      <stop offset="0" stop-color="#ffffff" stop-opacity=".18"/>
      <stop offset=".5" stop-color="#ffffff" stop-opacity=".04"/>
      <stop offset="1" stop-color="#ffffff" stop-opacity="0"/>
    </linearGradient>
    <filter id="gsh" x="-20%" y="-20%" width="140%" height="140%">
      <feDropShadow dx="0" dy="10" stdDeviation="14" flood-color="#000" flood-opacity="0.35"/>
    </filter>
  </defs>
  <rect x="16" y="16" width="480" height="480" rx="108" fill="url(#bg)"/>
  <rect x="16" y="16" width="480" height="480" rx="108" fill="url(#sheen)"/>
  <rect x="22" y="22" width="468" height="468" rx="102" fill="none" stroke="#ffffff" stroke-opacity=".18" stroke-width="3"/>
  <g filter="url(#gsh)" fill="#F4F8FF" stroke="#F4F8FF">
    <path d="M 132 190 q 31 -34 62 0 t 62 0 t 62 0 t 62 0" fill="none" stroke-width="22" stroke-linecap="round"/>
    <path d="M 132 256 q 31 -34 62 0 t 62 0 t 62 0 t 62 0" fill="none" stroke-width="22" stroke-linecap="round" opacity=".75"/>
    <path d="M 132 322 q 31 -34 62 0 t 62 0 t 62 0 t 62 0" fill="none" stroke-width="22" stroke-linecap="round" opacity=".5"/></g>
</svg>
